<svg width="19" height="19" viewBox="0 0 19 19" fill="none" xmlns="http://www.w3.org/2000/svg">
<path d="M11.8374 3.01575C12.1158 4.00418 12.6433 4.90458 13.3694 5.63069C14.0955 6.3568 14.9959 6.8843 15.9843 7.16266" stroke="#C1B0B0" stroke-width="1.25918" stroke-miterlimit="10" stroke-linecap="round" stroke-linejoin="round"/>
<path d="M12.7859 2.06714L6.17096 8.68205C5.91912 8.93389 5.66729 9.42917 5.61692 9.79013L5.25595 12.3169C5.12164 13.2319 5.76802 13.8699 6.68303 13.744L9.20979 13.383C9.56236 13.3326 10.0576 13.0808 10.3179 12.829L16.9328 6.21405C18.0744 5.07239 18.6117 3.74605 16.9328 2.06714C15.2539 0.388229 13.9275 0.925481 12.7859 2.06714Z" stroke="#C1B0B0" stroke-width="1.25918" stroke-miterlimit="10" stroke-linecap="round" stroke-linejoin="round"/>
<path d="M8.5551 1.21088H6.87619C2.67891 1.21088 1 2.88979 1 7.08707V12.1238C1 16.3211 2.67891 18 6.87619 18H11.9129C16.1102 18 17.7891 16.3211 17.7891 12.1238V10.4449" stroke="#C1B0B0" stroke-width="1.25918" stroke-linecap="round" stroke-linejoin="round"/>
</svg>
