<svg width="19" height="19" viewBox="0 0 19 19" fill="none" xmlns="http://www.w3.org/2000/svg">
<path d="M18 4.383C14.855 4.1025 11.6911 3.958 8.53667 3.958C6.66667 3.958 4.79667 4.043 2.92667 4.213L1 4.383M6.19444 3.5245L6.40222 2.411C6.55333 1.6035 6.66667 1 8.26278 1H10.7372C12.3333 1 12.4561 1.6375 12.5978 2.4195L12.8056 3.5245M15.9694 7.069L15.3556 15.6285C15.2517 16.963 15.1667 18 12.5317 18H6.46833C3.83333 18 3.74833 16.963 3.64444 15.6285L3.03056 7.069M7.92278 13.325H11.0678M7.13889 9.925H11.8611" stroke="#C1B0B0" stroke-width="1.5" stroke-linecap="round" stroke-linejoin="round"/>
</svg>
